<?xml version="1.0" encoding="UTF-8" standalone="no"?>
<!-- Uploaded to: SVG Repo, www.svgrepo.com, Generator: SVG Repo Mixer Tools -->

<svg
   fill="#000000"
   height="800px"
   width="800px"
   version="1.1"
   id="Capa_1"
   viewBox="0 0 463 463"
   xml:space="preserve"
   sodipodi:docname="iqama.svg"
   inkscape:version="1.4 (e7c3feb1, 2024-10-09)"
   xmlns:inkscape="http://www.inkscape.org/namespaces/inkscape"
   xmlns:sodipodi="http://sodipodi.sourceforge.net/DTD/sodipodi-0.dtd"
   xmlns="http://www.w3.org/2000/svg"
   xmlns:svg="http://www.w3.org/2000/svg"><defs
   id="defs1" /><sodipodi:namedview
   id="namedview1"
   pagecolor="#ffffff"
   bordercolor="#000000"
   borderopacity="0.25"
   inkscape:showpageshadow="2"
   inkscape:pageopacity="0.0"
   inkscape:pagecheckerboard="0"
   inkscape:deskcolor="#d1d1d1"
   inkscape:zoom="0.523125"
   inkscape:cx="146.23656"
   inkscape:cy="211.23059"
   inkscape:window-width="1752"
   inkscape:window-height="964"
   inkscape:window-x="309"
   inkscape:window-y="83"
   inkscape:window-maximized="0"
   inkscape:current-layer="Capa_1" />
<path
   style="stroke:#000000;stroke-width:7.22708;stroke-dasharray:none;stroke-opacity:1"
   d="m 237.31689,39.679417 c -19.85778,0 -38.65074,3.711411 -54.34937,10.730612 -3.3712,1.507733 -5.53543,4.807602 -5.53543,8.442742 V 128.7617 c -5.13749,-0.33394 -9.62376,3.42511 -10.05239,8.47892 l -0.67144,7.89677 -3.62171,-8.12737 1.66956,-27.60931 c 0.6392,-10.566518 -6.13703,-20.061234 -16.47629,-23.087834 -10.11107,-2.96229 -20.9748,1.164172 -26.42242,10.027522 l -15.78225,25.683162 c -1.23678,2.01239 -1.64844,4.40829 -1.15297,6.70762 l 11.9288,55.36445 -64.134994,118.71044 c -5.389626,9.9753 -5.448542,21.91816 -0.155991,31.94542 6.099418,11.55477 18.164116,18.59121 31.116856,18.59121 1.81545,0 3.648811,-0.13952 5.485691,-0.42276 l 6.491721,-1.00038 C 108.42169,349.948 119.0124,341.29204 123.29636,329.3291 l 16.35308,-45.667 c 7.09162,45.55985 7.52449,110.84141 7.52827,111.66145 0.008,1.42487 0.34884,2.82929 0.99812,4.10325 l 8.86323,17.39189 c -0.40599,4.07421 -1.33189,14.24427 -2.33421,26.16018 1.12849,-0.10385 2.25941,-0.18611 3.38998,-0.26112 1.18329,-0.0893 2.36772,-0.1305 3.55389,-0.1526 1.14515,-0.0189 2.29106,-0.0231 3.43633,-0.0271 0.91972,-0.003 1.8395,-0.004 2.75923,-0.005 1.1451,-4e-4 2.29011,9e-5 3.4352,0 0.33494,-0.0236 0.65584,-0.0264 0.96986,-0.0124 0.49983,0.0222 0.98574,0.0886 1.47965,0.17294 0.55752,-6.56502 1.18984,-14.33025 1.57235,-18.34931 H 299.3347 c 0.41507,4.36114 1.09324,12.69649 1.70912,20.06635 2.07477,0.10642 4.15192,0.16874 6.22835,0.22381 2.03591,0.0546 4.06706,0.02 6.09157,0.24642 1.43293,0.3407 2.89149,0.56647 4.35758,0.6997 0.81835,0.0759 1.638,0.12253 2.45855,0.15825 -1.13859,-13.74411 -2.13656,-24.44716 -2.58289,-28.92054 l 8.86323,-17.39189 c 0.64927,-1.27397 0.99055,-2.67838 0.99812,-4.10325 0.004,-0.82004 0.43188,-66.09891 7.52601,-111.66371 l 16.35308,45.66926 c 4.28271,11.96169 14.8758,20.6189 27.64323,22.59046 l 6.49059,1.00038 c 1.83814,0.28323 3.66883,0.42276 5.48682,0.42276 12.95149,0 25.0173,-7.03756 31.11798,-18.59234 5.29255,-10.026 5.23364,-21.96899 -0.15599,-31.94429 L 357.7828,184.09563 369.71386,128.73118 c 0.49547,-2.29809 0.0837,-4.69524 -1.15297,-6.70762 L 352.77751,96.340398 c -5.44762,-8.86458 -16.31274,-12.988572 -26.42129,-10.027522 -10.33925,3.0266 -17.11548,12.521316 -16.47629,23.087834 l 1.66956,27.60931 -3.62284,8.12737 -0.67031,-7.89677 c -0.42865,-5.05505 -4.911,-8.82029 -10.05352,-8.47892 V 58.852771 c 0,-3.633904 -2.16311,-6.935006 -5.5343,-8.442742 -15.69989,-7.019201 -34.49384,-10.730612 -54.35163,-10.730612 z m 0,18.553911 c 14.61566,0 28.92854,2.400431 40.97482,6.817268 V 89.154629 H 196.3432 V 65.050596 c 12.04629,-4.416837 26.35803,-6.817268 40.97369,-6.817268 z m -95.83738,45.687342 c 0.46066,-0.0198 0.93118,0.0348 1.39261,0.16955 1.88732,0.55288 3.12291,2.28349 3.00566,4.21176 l -1.80407,29.83502 c -0.0882,1.46198 0.17671,2.92392 0.7743,4.26715 l 13.97817,31.3531 -5.68803,16.11344 -17.40997,-7.87303 -11.53544,-53.52646 13.85948,-22.55091 c 0.74603,-1.21336 2.04532,-1.94014 3.42729,-1.99962 z m 191.67363,0.001 c 1.38163,0.0594 2.68351,0.784 3.42955,1.99736 l 13.85835,22.55317 -11.53431,53.52646 -17.4111,7.87303 -5.6869,-16.11344 13.97704,-31.35536 c 0.59759,-1.34447 0.86367,-2.80518 0.77543,-4.26715 l -1.80407,-29.83389 c -0.11599,-1.92703 1.11961,-3.65889 3.00566,-4.21176 0.4608,-0.13513 0.92982,-0.18821 1.39035,-0.16842 z m -136.80994,3.78561 h 81.94851 v 30.30299 c 0,21.93946 -29.75053,40.19825 -40.97482,40.19825 -11.22429,0 -40.97369,-18.25879 -40.97369,-40.19825 z m 94.83248,52.95789 10.97817,31.09876 -14.73891,-1.58478 c -3.67503,-3.65738 -7.96595,-7.00512 -12.95971,-9.66806 6.64405,-5.50405 12.57643,-12.21694 16.72045,-19.84592 z m -107.71532,0.001 c 4.14277,7.62774 10.07652,14.34199 16.71932,19.84479 -4.99376,2.66296 -9.28481,6.00819 -12.95858,9.66806 l -14.73891,1.58478 z m 34.41867,31.03433 c 7.08657,3.26285 13.9412,5.06068 19.43673,5.06068 5.49553,0 12.35016,-1.7966 19.43673,-5.06068 L 248.94841,222.32 237.31689,233.73448 225.68311,222.32 Z m -88.08078,8.04372 17.08669,7.72835 -41.43262,115.70592 c -1.97431,5.51394 -6.855453,9.50388 -12.739283,10.41298 l -6.48946,1.0015 c -6.88864,1.06123 -13.667139,-2.30315 -16.871919,-8.37491 -2.43952,-4.62092 -2.413644,-10.12567 0.07121,-14.72309 z m 215.03841,0 60.37538,111.75075 c 2.48364,4.59742 2.51086,10.10104 0.0712,14.72196 -3.20604,6.073 -9.99211,9.43614 -16.87192,8.37491 l -6.48946,-1.0015 c -5.88383,-0.90911 -10.76624,-4.89791 -12.73928,-10.41185 L 327.74997,207.47283 Z m -71.38746,2.93897 c 4.83239,4.63824 8.329,10.24315 10.74079,15.10402 h -14.5897 z m -72.26349,0.001 3.84891,15.10289 h -14.58857 c 2.41179,-4.86211 5.90854,-10.46589 10.73966,-15.10289 z m -28.07729,7.67635 c -3.80361,7.81574 -5.36144,13.96327 -5.50265,14.54335 -0.67448,2.76193 -0.0216,5.67464 1.77243,7.90469 1.79276,2.23007 4.52964,3.53128 7.42427,3.53128 h 36.42734 l 14.63153,14.35458 v 35.73894 c 0,5.12308 4.2336,9.27696 9.45555,9.27696 5.22195,0 9.45555,-4.15388 9.45555,-9.27696 v -35.73894 l 14.63153,-14.35458 h 36.42847 c 2.89464,0 5.63038,-1.30121 7.42314,-3.53128 1.79275,-2.23005 2.44679,-5.14276 1.77356,-7.90469 -0.14121,-0.58008 -1.69902,-6.72761 -5.50265,-14.54335 l 7.5034,0.80595 14.06634,39.28605 c -12.91115,39.30008 -14.3722,127.21437 -14.52979,142.59971 l -6.49172,12.73815 H 172.55906 l -6.49059,-12.73702 c -0.15759,-15.38534 -1.61976,-103.30085 -14.53092,-142.59971 l 14.06747,-39.28718 z"
   id="path27" />
</svg>
